# xmcd CD database file
#
# Track frame offsets:
#	150
#	18490
#	33668
#	51040
#	69988
#	88505
#	111948
#	129855
#	149548
#	171153
#	188630
#	205647
#	227728
#	249313
#
# Disc length: 3619 seconds
#
# Revision: 0
# Processed by: cddbd v1.5.1PL0 Copyright (c) Steve Scherf et al.
# Submitted via: CDex 1.51
#
DISCID=b80e210e
DTITLE=Feel The Jazz - Feel The Jazz
DYEAR=1900
DGENRE=Jazz
TTITLE0=Don't Sit Under The Appeltree
TTITLE1=Frenesi
TTITLE2=On The Sunny Side Of The Street
TTITLE3=People Will Say We're in Love
TTITLE4=Always
TTITLE5=Sweet And Lovely
TTITLE6=Paper Doll
TTITLE7=I'll Be Seeing You
TTITLE8=Taking A Chance One Love
TTITLE9=Chickery Chick
TTITLE10=It's Only A Paper Moon
TTITLE11=Dream
TTITLE12=Together
TTITLE13=In The Mood Boogie
EXTD=
EXTT0=
EXTT1=
EXTT2=
EXTT3=
EXTT4=
EXTT5=
EXTT6=
EXTT7=
EXTT8=
EXTT9=
EXTT10=
EXTT11=
EXTT12=
EXTT13=
PLAYORDER=
